<!-- Generated by IcoMoon.io -->
<svg version="1.1" xmlns="http://www.w3.org/2000/svg" width="1024" height="1024" viewBox="0 0 1024 1024">
<title></title>
<g id="icomoon-ignore">
</g>
<path fill="#000" d="M311.552 907.349c-4.737 5.546-7.619 12.799-7.619 20.727 0 17.673 14.327 32 32 32 8.384 0 16.015-3.224 21.721-8.501l-0.021 0.019 2.816-2.944 352-416c4.703-5.535 7.563-12.763 7.563-20.66 0-6.432-1.898-12.421-5.164-17.437l0.075 0.124-2.475-3.328-352-416c-5.91-7.016-14.699-11.442-24.523-11.442-17.673 0-32 14.327-32 32 0 6.528 1.955 12.6 5.311 17.662l-0.074-0.118 2.389 3.2 334.507 395.349-334.507 395.349z"></path>
</svg>
